<svg width="50" height="50" viewBox="0 0 50 50" fill="none" xmlns="http://www.w3.org/2000/svg">
<path d="M26.8617 23.7234H23.1489C21.6064 23.7234 20.3511 22.4681 20.3511 20.9255C20.3511 19.383 21.6064 18.1277 23.1489 18.1277H29.7021C30.4043 18.1277 30.9787 17.5532 30.9787 16.8511C30.9787 16.1489 30.4043 15.5745 29.7021 15.5745H26.2872V12.9681C26.2872 12.266 25.7128 11.6915 25.0106 11.6915C24.3085 11.6915 23.734 12.266 23.734 12.9681V15.5745H23.1489C20.2021 15.5745 17.7979 17.9787 17.7979 20.9255C17.7979 23.8723 20.2021 26.2766 23.1489 26.2766H26.8617C28.4043 26.2766 29.6596 27.5319 29.6596 29.0745C29.6596 30.617 28.4043 31.8723 26.8617 31.8723H20.1915C19.4894 31.8723 18.9149 32.4468 18.9149 33.1489C18.9149 33.8511 19.4894 34.4255 20.1915 34.4255H23.7234V37.0851C23.7234 37.7872 24.2979 38.3617 25 38.3617C25.7021 38.3617 26.2766 37.7872 26.2766 37.0851V34.4255H26.8936C26.9043 34.4255 26.9149 34.4255 26.9255 34.4255C29.8404 34.383 32.2021 32 32.2021 29.0745C32.2021 26.117 29.8085 23.7234 26.8617 23.7234Z" fill="#43A515"/>
<path d="M42.6809 7.31915C37.9575 2.59575 31.6809 0 25 0C18.3191 0 12.0426 2.59575 7.31915 7.31915C2.59575 12.0426 0 18.3191 0 25C0 31.6809 2.59575 37.9575 7.31915 42.6809C12.0426 47.4043 18.3191 50 25 50C31.6809 50 37.9575 47.4043 42.6809 42.6809C47.4043 37.9575 50 31.6809 50 25C50 18.3191 47.4043 12.0426 42.6809 7.31915ZM25 47.4468C12.6277 47.4468 2.55319 37.3723 2.55319 25C2.55319 12.6277 12.6277 2.55319 25 2.55319C37.3723 2.55319 47.4468 12.6277 47.4468 25C47.4468 37.3723 37.3723 47.4468 25 47.4468Z" fill="#43A515"/>
</svg>
