<svg width="35" height="50" viewBox="0 0 35 50" fill="none" xmlns="http://www.w3.org/2000/svg">
<path fill-rule="evenodd" clip-rule="evenodd" d="M6.25051 2.50001C4.17938 2.50001 2.5005 4.17896 2.5005 6.25003V38.7502C2.5005 40.8213 4.17938 42.5002 6.25051 42.5002H18.7506V45.0002H6.25051C2.79875 45.0002 0.000488281 42.2019 0.000488281 38.7502V6.25003C0.000488281 2.79824 2.79875 0 6.25051 0H28.7506C32.2024 0 35.0006 2.79824 35.0006 6.25003V38.7502C35.0006 42.2019 32.2024 45.0002 28.7506 45.0002H26.2506V42.5002H28.7506C30.8217 42.5002 32.5006 40.8213 32.5006 38.7502V6.25003C32.5006 4.17896 30.8217 2.50001 28.7506 2.50001H6.25051Z" fill="#3E66CC"/>
<path fill-rule="evenodd" clip-rule="evenodd" d="M10.0007 8.75003C10.0007 8.05965 10.5603 7.50003 11.2507 7.50003H23.7507C24.4411 7.50003 25.0007 8.05965 25.0007 8.75003C25.0007 9.44041 24.4411 10 23.7507 10H11.2507C10.5603 10 10.0007 9.44041 10.0007 8.75003Z" fill="#3E66CC"/>
<path fill-rule="evenodd" clip-rule="evenodd" d="M5.00134 16.2501C5.00134 15.5597 5.56097 15.0001 6.25135 15.0001H28.7514C29.4418 15.0001 30.0014 15.5597 30.0014 16.2501C30.0014 16.9404 29.4418 17.5001 28.7514 17.5001H6.25135C5.56097 17.5001 5.00134 16.9404 5.00134 16.2501Z" fill="#3E66CC"/>
<path fill-rule="evenodd" clip-rule="evenodd" d="M5.00134 21.2499C5.00134 20.5595 5.56097 19.9999 6.25135 19.9999H28.7514C29.4418 19.9999 30.0014 20.5595 30.0014 21.2499C30.0014 21.9403 29.4418 22.4999 28.7514 22.4999H6.25135C5.56097 22.4999 5.00134 21.9403 5.00134 21.2499Z" fill="#3E66CC"/>
<path fill-rule="evenodd" clip-rule="evenodd" d="M5.00134 26.25C5.00134 25.5596 5.56097 25 6.25135 25H28.7514C29.4418 25 30.0014 25.5596 30.0014 26.25C30.0014 26.9404 29.4418 27.5 28.7514 27.5H6.25135C5.56097 27.5 5.00134 26.9404 5.00134 26.25Z" fill="#3E66CC"/>
<path fill-rule="evenodd" clip-rule="evenodd" d="M22.5007 40.0001C23.8815 40.0001 25.0007 38.8808 25.0007 37.5C25.0007 36.1193 23.8815 35 22.5007 35C21.12 35 20.0007 36.1193 20.0007 37.5C20.0007 38.8808 21.12 40.0001 22.5007 40.0001ZM22.5007 42.5001C25.2621 42.5001 27.5008 40.2614 27.5008 37.5C27.5008 34.7387 25.2621 32.5 22.5007 32.5C19.7393 32.5 17.5007 34.7387 17.5007 37.5C17.5007 40.2614 19.7393 42.5001 22.5007 42.5001Z" fill="#3E66CC"/>
<path fill-rule="evenodd" clip-rule="evenodd" d="M22.5008 45.5976L23.7508 46.1532V42.5001H21.2508V46.1532L22.5008 45.5976ZM18.7508 50.0001V40H26.2508V50.0001L22.5008 48.3335L18.7508 50.0001Z" fill="#3E66CC"/>
</svg>
