<svg width="50" height="46" viewBox="0 0 50 46" fill="none" xmlns="http://www.w3.org/2000/svg">
<path d="M16.1261 16.4212C15.4835 16.9516 15.1163 17.737 15.1163 18.5632V21.0622C15.1163 21.6232 15.5651 22.072 16.1261 22.072C16.6871 22.072 17.1359 21.6232 17.1359 21.0622V18.5632C17.1359 18.3388 17.2379 18.1246 17.4113 17.9818C19.594 16.1968 21.9502 15.0035 22.4092 14.7791C22.807 14.5853 23.0722 14.1671 23.0722 13.7285V10.2095C23.0722 9.8729 22.8988 9.5567 22.6234 9.3731C22.45 9.2507 22.3378 9.05691 22.3378 8.84271V5.19114C22.3378 3.93655 23.3578 2.91656 24.6124 2.91656H25.3978C26.6524 2.91656 27.6724 3.93655 27.6724 5.19114V8.84271C27.6724 9.05691 27.5704 9.2507 27.3868 9.3731C27.1012 9.5567 26.938 9.8729 26.938 10.2095V13.7285C26.938 14.1773 27.193 14.5853 27.5908 14.7791C28.0396 15.0035 30.406 16.1968 32.5887 17.9818C32.7621 18.1246 32.8641 18.3388 32.8641 18.5632V21.0622C32.8641 21.6232 33.3129 22.072 33.8739 22.072C34.4349 22.072 34.8837 21.6232 34.8837 21.0622V18.5632C34.8837 17.7268 34.5165 16.9414 33.8739 16.4212C31.9563 14.8505 29.9164 13.7081 28.9576 13.2083V10.6685C29.4268 10.1789 29.692 9.5261 29.692 8.83251V5.19114C29.692 2.82476 27.7642 0.896973 25.3978 0.896973H24.6124C22.246 0.896973 20.3182 2.82476 20.3182 5.19114V8.84271C20.3182 9.5363 20.5834 10.1891 21.0526 10.6787V13.2083C20.0836 13.7081 18.0437 14.8505 16.1261 16.4212Z" fill="#A214A5"/>
<path d="M48.9902 45.1034C49.5512 45.1034 50 44.6546 50 44.0936V41.5946C50 40.7583 49.6328 39.9729 48.9902 39.4527C47.0726 37.8819 45.0326 36.7395 44.0738 36.2397V33.6999C44.543 33.2103 44.8082 32.5575 44.8082 31.8639V28.2124C44.8082 25.846 42.8805 23.9182 40.5141 23.9182H39.7287C37.3623 23.9182 35.4345 25.846 35.4345 28.2124V31.8639C35.4345 32.5575 35.6997 33.2103 36.1689 33.6999V36.2397C35.2101 36.7395 33.1701 37.8819 31.2525 39.4527C30.61 39.9831 30.2428 40.7583 30.2428 41.5946V44.0936C30.2428 44.6546 30.6916 45.1034 31.2525 45.1034C31.8135 45.1034 32.2623 44.6546 32.2623 44.0936V41.5946C32.2623 41.3702 32.3643 41.1561 32.5377 41.0133C34.7205 39.2181 37.0767 38.0247 37.5357 37.8105C37.9335 37.6167 38.1885 37.1985 38.1885 36.7599V33.2409C38.1885 32.9043 38.0151 32.5881 37.7397 32.4045C37.5663 32.2821 37.4541 32.0883 37.4541 31.8741V28.2226C37.4541 26.968 38.4741 25.948 39.7287 25.948H40.5141C41.7687 25.948 42.7887 26.968 42.7887 28.2226V31.8741C42.7887 32.0883 42.6867 32.2821 42.5031 32.4045C42.2175 32.5881 42.0543 32.9043 42.0543 33.2409V36.7599C42.0543 37.2087 42.3093 37.6167 42.7071 37.8105C43.1559 38.0349 45.5222 39.2283 47.705 41.0133C47.8784 41.1561 47.9804 41.3702 47.9804 41.5946V44.0936C47.9804 44.6546 48.4394 45.1034 48.9902 45.1034Z" fill="#A214A5"/>
<path d="M18.7474 39.4527C16.8299 37.8819 14.7899 36.7395 13.8311 36.2397V33.6999C14.3003 33.2103 14.5655 32.5575 14.5655 31.8639V28.2124C14.5655 25.846 12.6377 23.9182 10.2713 23.9182H9.48592C7.11954 23.9182 5.19176 25.846 5.19176 28.2124V31.8639C5.19176 32.5575 5.45696 33.2103 5.92615 33.6999V36.2397C4.96736 36.7395 2.92738 37.8819 1.00979 39.4527C0.367197 39.9831 0 40.7583 0 41.5946V44.0936C0 44.6546 0.448796 45.1034 1.00979 45.1034C1.57079 45.1034 2.01958 44.6546 2.01958 44.0936V41.5946C2.01958 41.3702 2.12158 41.1561 2.29498 41.0133C4.47776 39.2181 6.83394 38.0247 7.29294 37.8105C7.69074 37.6167 7.94574 37.1985 7.94574 36.7599V33.2409C7.94574 32.9043 7.77234 32.5881 7.49694 32.4045C7.32354 32.2821 7.21134 32.0883 7.21134 31.8741V28.2226C7.21134 26.968 8.23133 25.948 9.48592 25.948H10.2713C11.5259 25.948 12.5459 26.968 12.5459 28.2226V31.8741C12.5459 32.0883 12.4439 32.2821 12.2603 32.4045C11.9747 32.5881 11.8115 32.9043 11.8115 33.2409V36.7599C11.8115 37.2087 12.0665 37.6167 12.4643 37.8105C12.9131 38.0349 15.2795 39.2181 17.4623 41.0133C17.6357 41.1561 17.7377 41.3702 17.7377 41.5946V44.0936C17.7377 44.6546 18.1865 45.1034 18.7474 45.1034C19.3084 45.1034 19.7572 44.6546 19.7572 44.0936V41.5946C19.7572 40.7583 19.39 39.9729 18.7474 39.4527Z" fill="#A214A5"/>
<path d="M30.7426 33.4245C30.9058 33.5163 31.0791 33.5571 31.2423 33.5571C31.5891 33.5571 31.9359 33.3735 32.1195 33.0471C32.3949 32.5677 32.2317 31.9455 31.7523 31.6701L26.0914 28.4062V21.868C26.0914 21.307 25.6426 20.8582 25.0816 20.8582C24.5206 20.8582 24.0718 21.307 24.0718 21.868V28.4062L18.4109 31.6803C17.9315 31.9557 17.7581 32.5779 18.0437 33.0573C18.2273 33.3837 18.5741 33.5673 18.9208 33.5673C19.0942 33.5673 19.2676 33.5265 19.4206 33.4347L25.0816 30.1605L30.7426 33.4245Z" fill="#A214A5"/>
</svg>
