<svg width="50" height="46" viewBox="0 0 50 46" fill="none" xmlns="http://www.w3.org/2000/svg">
<path d="M50 3.74668V34.0994C50 35.7638 48.6457 37.1181 46.9813 37.1181H31.9168V39.3149C31.9168 41.3285 33.5547 42.9664 35.5683 42.9664H38.889C39.5252 42.9664 40.0416 43.4816 40.0416 44.119C40.0416 44.7553 39.5252 45.2717 38.889 45.2717H11.1111C10.4749 45.2717 9.9585 44.7553 9.9585 44.119C9.9585 43.4816 10.4749 42.9664 11.1111 42.9664H14.4317C16.4453 42.9664 18.0832 41.3285 18.0832 39.3149V37.1181H3.01865C1.3543 37.1181 0 35.7638 0 34.0994V3.74668C0 2.08232 1.3543 0.728027 3.01865 0.728027H46.9813C48.6457 0.728027 50 2.08232 50 3.74668ZM47.6948 34.0994V28.0425H2.30518V34.0994C2.30518 34.4937 2.62559 34.8129 3.01865 34.8129H46.9813C47.3744 34.8129 47.6948 34.4936 47.6948 34.0994ZM47.6948 25.7372V3.74668C47.6948 3.35361 47.3744 3.0332 46.9813 3.0332H3.01865C2.62559 3.0332 2.30518 3.35361 2.30518 3.74668V25.7372H47.6948ZM19.1332 42.9664H30.8667C30.0817 41.9567 29.6115 40.69 29.6115 39.3149V37.1181H20.3884V39.3149C20.3885 40.6899 19.9182 41.9567 19.1332 42.9664Z" fill="#FF7A00"/>
<path d="M31.805 13.3894C32.2545 13.8401 32.2545 14.5696 31.805 15.0203L28.5593 18.265C28.3345 18.4898 28.0395 18.6026 27.7444 18.6026C27.4494 18.6026 27.1543 18.4897 26.9295 18.265C26.4788 17.8143 26.4788 17.0847 26.9295 16.6352L30.1741 13.3895C30.6247 12.9399 31.3543 12.9399 31.805 13.3894Z" fill="#FF7A00"/>
<path d="M26.9767 8.66948C27.4263 9.11899 27.4263 9.84976 26.9767 10.2993L18.8302 18.4448C18.6054 18.6707 18.3103 18.7825 18.0153 18.7825C17.7203 18.7825 17.4252 18.6707 17.2005 18.4448C16.751 17.9953 16.751 17.2657 17.2005 16.815L25.346 8.66948C25.7965 8.2189 26.5261 8.2189 26.9767 8.66948Z" fill="#FF7A00"/>
<path d="M25 32.6713C25.6868 32.6713 26.2436 32.1145 26.2436 31.4277C26.2436 30.7408 25.6868 30.184 25 30.184C24.3131 30.184 23.7563 30.7408 23.7563 31.4277C23.7563 32.1145 24.3131 32.6713 25 32.6713Z" fill="#FF7A00"/>
</svg>
