<svg width="113" height="123" viewBox="0 0 113 123" fill="none" xmlns="http://www.w3.org/2000/svg">
<path fill-rule="evenodd" clip-rule="evenodd" d="M0 65.0872C0.0564429 95.5907 22.9199 120.787 53.7178 123C54.4871 106.925 53.8414 73.7657 53.8349 55.9248H0V65.0872Z" fill="#FFCB05"/>
<path fill-rule="evenodd" clip-rule="evenodd" d="M58.9053 120.061L58.9967 123C89.942 120.788 112.969 95.5965 113 65.0871V55.9248H58.9053V120.061Z" fill="#FFCB05"/>
<path fill-rule="evenodd" clip-rule="evenodd" d="M0 51.3767H54.0946V0H0V51.3767Z" fill="#FFCB05"/>
<path fill-rule="evenodd" clip-rule="evenodd" d="M58.9052 51.3767H113V0H58.9052V51.3767Z" fill="#FFCB05"/>
<path d="M30.2239 39.9589C28.2985 39.9589 26.6368 39.6952 25.2388 39.1676C23.8409 38.6137 22.6804 37.862 21.7572 36.9125C20.8604 35.9366 20.1878 34.7892 19.7394 33.4704C19.3174 32.1252 19.1064 30.6482 19.1064 29.0392V11.9871H25.2784V28.5249C25.2784 29.6327 25.3971 30.5822 25.6345 31.3735C25.8982 32.1384 26.2411 32.7714 26.6632 33.2726C27.1115 33.7474 27.6391 34.0902 28.2457 34.3013C28.8787 34.5123 29.5645 34.6178 30.3031 34.6178C31.8065 34.6178 33.0198 34.1562 33.943 33.233C34.8925 32.3099 35.3673 30.7405 35.3673 28.5249V11.9871H41.5393V29.0392C41.5393 30.6482 41.3151 32.1252 40.8667 33.4704C40.4183 34.8156 39.7325 35.9761 38.8093 36.9521C37.8862 37.9016 36.7124 38.6401 35.2881 39.1676C33.8638 39.6952 32.1758 39.9589 30.2239 39.9589Z" fill="#00274C"/>
<path d="M81.3986 34.6969C82.269 34.6969 82.9812 34.631 83.5351 34.4991C84.1154 34.3408 84.5769 34.143 84.9198 33.9056C85.2627 33.6419 85.5001 33.3385 85.632 32.9956C85.7639 32.6527 85.8298 32.2703 85.8298 31.8483C85.8298 30.9515 85.4078 30.213 84.5637 29.6327C83.7197 29.026 82.269 28.3798 80.2117 27.694C79.3149 27.3775 78.4181 27.0215 77.5213 26.6258C76.6245 26.2038 75.8201 25.6895 75.1079 25.0828C74.3958 24.4498 73.8155 23.6981 73.3671 22.8277C72.9187 21.9309 72.6945 20.8494 72.6945 19.5834C72.6945 18.3173 72.9319 17.1832 73.4067 16.1809C73.8814 15.1522 74.554 14.2818 75.4244 13.5696C76.2948 12.8575 77.3499 12.3168 78.5896 11.9475C79.8292 11.5519 81.2272 11.3541 82.7834 11.3541C84.6297 11.3541 86.2254 11.5519 87.5706 11.9475C88.9158 12.3432 90.0236 12.7784 90.894 13.2531L89.1136 18.1195C88.3487 17.7239 87.4915 17.381 86.542 17.0909C85.6188 16.7743 84.4978 16.6161 83.179 16.6161C81.7019 16.6161 80.6337 16.8271 79.9743 17.2491C79.3413 17.6448 79.0248 18.2646 79.0248 19.1086C79.0248 19.6098 79.1435 20.0318 79.3808 20.3747C79.6182 20.7176 79.9479 21.0341 80.3699 21.3242C80.8183 21.588 81.3195 21.8385 81.8734 22.0759C82.4537 22.2869 83.0867 22.5111 83.7725 22.7485C85.1968 23.276 86.4364 23.8036 87.4915 24.3311C88.5465 24.8322 89.4169 25.4257 90.1027 26.1115C90.8149 26.7973 91.3424 27.6017 91.6853 28.5249C92.0282 29.4481 92.1996 30.569 92.1996 31.8878C92.1996 34.4463 91.3028 36.4377 89.5093 37.862C87.7157 39.26 85.0121 39.9589 81.3986 39.9589C80.1853 39.9589 79.0907 39.8798 78.1148 39.7215C77.1389 39.5897 76.2685 39.4182 75.5036 39.2072C74.765 38.9962 74.1188 38.772 73.5649 38.5346C73.0374 38.2972 72.589 38.073 72.2197 37.862L73.9606 32.9561C74.7782 33.4045 75.7805 33.8133 76.9674 34.1826C78.1807 34.5255 79.6578 34.6969 81.3986 34.6969Z" fill="#00274C"/>
<path d="M37.5629 90.4707C37.2728 89.5212 36.9431 88.5452 36.5738 87.543C36.2309 86.5407 35.8881 85.5384 35.5452 84.5361H24.8628C24.52 85.5384 24.1639 86.5407 23.7946 87.543C23.4517 88.5452 23.1352 89.5212 22.8451 90.4707H16.4357C17.4643 87.5166 18.4403 84.7867 19.3634 82.2809C20.2866 79.7752 21.1834 77.4145 22.0538 75.1989C22.9506 72.9834 23.821 70.8865 24.665 68.9082C25.5354 66.9037 26.4322 64.9518 27.3554 63.0528H33.2504C34.1472 64.9518 35.0308 66.9037 35.9012 68.9082C36.7716 70.8865 37.6421 72.9834 38.5125 75.1989C39.4093 77.4145 40.3192 79.7752 41.2424 82.2809C42.1656 84.7867 43.1415 87.5166 44.1701 90.4707H37.5629ZM30.1644 69.2643C30.0326 69.66 29.8347 70.2007 29.571 70.8865C29.3072 71.5722 29.0039 72.3635 28.661 73.2603C28.3181 74.1571 27.9357 75.1462 27.5136 76.2276C27.118 77.309 26.7092 78.4432 26.2872 79.6301H34.0813C33.6593 78.4432 33.2504 77.309 32.8548 76.2276C32.4592 75.1462 32.0767 74.1571 31.7074 73.2603C31.3646 72.3635 31.0612 71.5722 30.7975 70.8865C30.5337 70.2007 30.3227 69.66 30.1644 69.2643Z" fill="#00274C"/>
<path d="M93.5636 63.0528V68.3148H85.2947V90.4707H79.1227V68.3148H70.8538V63.0528H93.5636Z" fill="#00274C"/>
</svg>
